<svg width="374" height="476" viewBox="0 0 374 476" fill="none" xmlns="http://www.w3.org/2000/svg">
<path d="M369.664 195.776C343.552 142.528 283.136 110.272 222.72 110.272C200.192 110.272 177.664 114.88 157.184 124.096C159.232 107.2 160.256 90.304 160.256 72.896C160.256 49.344 158.208 26.304 153.6 3.264C153.6 1.728 152.576 0.704 151.04 0.192C149.504 -0.32 147.968 0.192 146.944 1.728C136.704 16.064 128 31.936 121.344 48.832C114.688 65.728 111.104 83.648 111.104 101.568C111.104 123.072 116.224 144.064 125.44 163.52C116.736 166.08 108.544 169.152 100.864 173.248C72.704 187.072 49.152 208.064 32.256 233.664C22.016 249.536 13.824 266.432 8.192 284.352C3.072 301.76 0 320.704 0 339.136C0 390.848 20.992 437.952 54.784 471.744C70.656 487.616 89.088 499.904 109.568 508.608C130.048 517.312 151.552 521.408 173.568 521.408C217.6 521.408 257.536 504 287.232 475.328C288.256 474.304 288.768 472.768 288.256 471.232C287.744 469.696 286.208 469.184 285.184 468.672C261.632 465.088 239.616 455.872 220.672 442.56C201.728 429.248 186.368 411.328 175.616 390.848C164.864 370.368 159.232 347.328 159.232 323.776C159.232 293.056 168.448 263.36 186.368 238.272C203.776 213.184 228.352 193.728 257.024 181.952C285.696 170.176 316.928 167.104 347.648 173.248C354.816 174.784 361.472 176.832 368.128 178.88C369.664 179.392 371.2 178.88 372.224 177.856C373.248 176.832 373.76 175.296 373.248 173.76C375.296 208.576 372.736 202.432 369.664 195.776Z" fill="#ED8606"/>
</svg>
