<svg width="600" height="570" viewBox="0 0 600 570" fill="none" xmlns="http://www.w3.org/2000/svg">
<path d="M75 270C54 270 36.25 262.75 21.75 248.25C7.25 233.75 0 216 0 195C0 174 7.25 156.25 21.75 141.75C36.25 127.25 54 120 75 120C96 120 113.75 127.25 128.25 141.75C142.75 156.25 150 174 150 195C150 216 142.75 233.75 128.25 248.25C113.75 262.75 96 270 75 270ZM210 150C189 150 171.25 142.75 156.75 128.25C142.25 113.75 135 96 135 75C135 54 142.25 36.25 156.75 21.75C171.25 7.25 189 0 210 0C231 0 248.75 7.25 263.25 21.75C277.75 36.25 285 54 285 75C285 96 277.75 113.75 263.25 128.25C248.75 142.75 231 150 210 150ZM390 150C369 150 351.25 142.75 336.75 128.25C322.25 113.75 315 96 315 75C315 54 322.25 36.25 336.75 21.75C351.25 7.25 369 0 390 0C411 0 428.75 7.25 443.25 21.75C457.75 36.25 465 54 465 75C465 96 457.75 113.75 443.25 128.25C428.75 142.75 411 150 390 150ZM525 270C504 270 486.25 262.75 471.75 248.25C457.25 233.75 450 216 450 195C450 174 457.25 156.25 471.75 141.75C486.25 127.25 504 120 525 120C546 120 563.75 127.25 578.25 141.75C592.75 156.25 600 174 600 195C600 216 592.75 233.75 578.25 248.25C563.75 262.75 546 270 525 270ZM139.5 570C117 570 98.125 561.375 82.875 544.125C67.625 526.875 60 506.5 60 483C60 457 68.875 434.25 86.625 414.75C104.375 395.25 122 376 139.5 357C154 341.5 166.5 324.625 177 306.375C187.5 288.125 200 271 214.5 255C225.5 242 238.25 231.25 252.75 222.75C267.25 214.25 283 210 300 210C317 210 332.75 214 347.25 222C361.75 230 374.5 240.5 385.5 253.5C399.5 269.5 411.875 286.75 422.625 305.25C433.375 323.75 446 341 460.5 357C478 376 495.625 395.25 513.375 414.75C531.125 434.25 540 457 540 483C540 506.5 532.375 526.875 517.125 544.125C501.875 561.375 483 570 460.5 570C433.5 570 406.75 567.75 380.25 563.25C353.75 558.75 327 556.5 300 556.5C273 556.5 246.25 558.75 219.75 563.25C193.25 567.75 166.5 570 139.5 570Z" fill="#1A1C1C"/>
</svg>
